<svg width="23" height="23" viewBox="0 0 23 23" fill="none" xmlns="http://www.w3.org/2000/svg">
<path fill-rule="evenodd" clip-rule="evenodd" d="M16.6963 13.5163C16.2213 12.8761 15.9079 12.3028 15.7179 11.8823H17.6748C17.4848 12.3028 17.1808 12.8665 16.6963 13.5163ZM19.3468 10.4108H17.4373V9.72276C17.4373 9.32142 17.1144 8.98698 16.7059 8.98698C16.3069 8.98698 15.9743 9.31187 15.9743 9.72276V10.4108H14.0648C13.6658 10.4108 13.3334 10.7356 13.3334 11.1465C13.3334 11.5479 13.6563 11.8823 14.0648 11.8823H14.1598C14.3498 12.427 14.7868 13.459 15.7368 14.6534C15.3378 15.0548 14.8723 15.4656 14.3213 15.867C13.9983 16.1059 13.9223 16.5645 14.1598 16.899C14.3023 17.0996 14.5208 17.1952 14.7488 17.1952C14.9008 17.1952 15.0528 17.1474 15.1763 17.0519C15.7653 16.6219 16.2689 16.1728 16.7059 15.7428C17.1429 16.1823 17.6464 16.6219 18.2354 17.0519C18.3684 17.1474 18.5204 17.1952 18.6629 17.1952C18.8909 17.1952 19.1093 17.0901 19.2518 16.899C19.4893 16.5741 19.4229 16.1154 19.0904 15.867C18.5394 15.4656 18.0738 15.0548 17.6748 14.6534C18.6153 13.459 19.0618 12.4174 19.2518 11.8823H19.3468C19.7458 11.8823 20.0784 11.5574 20.0784 11.1465C20.0784 10.7356 19.7458 10.4108 19.3468 10.4108ZM21.1423 20.1574C21.1423 20.855 20.5819 21.4188 19.8884 21.4188H10.9488C10.8633 21.4188 10.7778 21.3901 10.6923 21.371L13.0768 18.1699C13.1148 18.1221 13.1244 18.0648 13.1529 18.017C13.1719 17.9883 13.1909 17.9596 13.2004 17.9214C13.2289 17.8259 13.2383 17.7208 13.2193 17.6252L11.4143 5.28898H19.8788C20.5723 5.28898 21.1329 5.85276 21.1329 6.55031V20.1574H21.1423ZM11.0248 18.4661L9.68535 20.2625L9.48585 18.4661H11.0248ZM1.88585 15.7332V2.9192C1.88585 2.22165 2.44635 1.65787 3.13985 1.65787H8.32685C8.94435 1.65787 9.48584 2.12609 9.57134 2.73765L11.6423 17.0041H3.13985C2.44635 16.9945 1.88585 16.4308 1.88585 15.7332ZM19.8884 3.81743H11.2054L11.0154 2.51787C10.8254 1.18965 9.66635 0.176758 8.32685 0.176758H3.13985C1.63885 0.176758 0.422852 1.39987 0.422852 2.90965V15.7236C0.422852 17.2334 1.63885 18.4565 3.13985 18.4565H8.02285L8.24134 20.4536C8.39334 21.8392 9.55235 22.8808 10.9393 22.8808H19.8788C21.3798 22.8808 22.5959 21.6576 22.5959 20.1479V6.55031C22.6054 5.05009 21.3799 3.81743 19.8884 3.81743ZM5.39134 9.86609L5.91384 7.14276C5.96134 6.92298 6.33185 6.92298 6.36985 7.14276L6.89235 9.86609H5.39134ZM6.14185 5.48009C5.33435 5.48009 4.63135 6.06298 4.47935 6.86565L3.36785 12.6754C3.29185 13.0768 3.54835 13.459 3.94735 13.5354C4.33685 13.6119 4.72635 13.3539 4.80235 12.9525L5.11585 11.3376H7.18685L7.50035 12.9525C7.56685 13.3061 7.87085 13.545 8.21285 13.545C8.26035 13.545 8.30785 13.545 8.35535 13.5354C8.75435 13.459 9.01085 13.0672 8.93485 12.6754L7.82335 6.86565C7.65235 6.06298 6.94935 5.48009 6.14185 5.48009Z" fill="#010202"/>
</svg>
